<?xml version="1.0" encoding="UTF-8" standalone="no"?>
<!-- Created with Inkscape (http://www.inkscape.org/) -->

<svg
   width="256"
   height="256"
   viewBox="0 0 67.733332 67.733333"
   version="1.1"
   id="svg1"
   inkscape:version="1.3.2 (091e20e, 2023-11-25)"
   sodipodi:docname="icon.svg"
   inkscape:export-filename="icon.png"
   inkscape:export-xdpi="96"
   inkscape:export-ydpi="96"
   xmlns:inkscape="http://www.inkscape.org/namespaces/inkscape"
   xmlns:sodipodi="http://sodipodi.sourceforge.net/DTD/sodipodi-0.dtd"
   xmlns="http://www.w3.org/2000/svg"
   xmlns:svg="http://www.w3.org/2000/svg">
  <sodipodi:namedview
     id="namedview1"
     pagecolor="#ffffff"
     bordercolor="#111111"
     borderopacity="1"
     inkscape:showpageshadow="0"
     inkscape:pageopacity="0"
     inkscape:pagecheckerboard="1"
     inkscape:deskcolor="#d1d1d1"
     inkscape:document-units="px"
     showgrid="true"
     inkscape:zoom="1.748432"
     inkscape:cx="171.58231"
     inkscape:cy="169.00857"
     inkscape:window-width="1392"
     inkscape:window-height="916"
     inkscape:window-x="3241"
     inkscape:window-y="288"
     inkscape:window-maximized="0"
     inkscape:current-layer="layer1">
    <inkscape:grid
       id="grid1"
       units="px"
       originx="0"
       originy="0"
       spacingx="2.1166666"
       spacingy="2.1166666"
       empcolor="#0099e5"
       empopacity="0.30196078"
       color="#0099e5"
       opacity="0.14901961"
       empspacing="4"
       dotted="false"
       gridanglex="30"
       gridanglez="30"
       visible="true" />
  </sodipodi:namedview>
  <defs
     id="defs1">
    <rect
       x="31.999999"
       y="31.999998"
       width="223.99999"
       height="223.99999"
       id="rect1" />
  </defs>
  <g
     inkscape:label="Layer 1"
     inkscape:groupmode="layer"
     id="layer1">
    <rect
       style="fill:#f7f7ff;fill-opacity:1;stroke:none;stroke-width:1.5875;stroke-linecap:round;stroke-linejoin:round;stroke-miterlimit:0;stroke-dasharray:none"
       id="rect2"
       width="67.73333"
       height="67.73333"
       x="0"
       y="0"
       ry="4.0435815e-09" />
    <path
       id="text1"
       style="font-weight:100;font-size:192px;font-family:'.Keyboard';-inkscape-font-specification:'.Keyboard, Thin';white-space:pre;fill:#5b8c5a;stroke:#5b8c5a;stroke-width:1;stroke-linecap:round;stroke-linejoin:round;stroke-miterlimit:0;fill-opacity:1;stroke-dasharray:none"
       d="M 96.125002 66.202069 C 88.81251 66.202069 82.124996 67.170821 76.062502 69.108319 C 70.062508 70.983318 64.906248 73.670823 60.593752 77.170819 C 56.281257 80.608316 52.9375 84.764574 50.562502 89.639569 C 48.250005 94.514565 47.093752 99.889573 47.093752 105.76457 C 47.093752 110.70206 47.781254 115.13957 49.156252 119.07707 C 50.593751 122.95207 52.750005 126.42082 55.625002 129.48332 C 58.408443 132.3852 61.917171 134.91056 66.103518 137.08293 L 98.816409 129.04191 L 91.625002 127.13957 C 86.812507 125.95207 82.718749 124.63957 79.343752 123.20207 C 75.968756 121.76457 73.21875 120.17082 71.093752 118.42082 C 68.968754 116.60832 67.406251 114.63957 66.406252 112.51457 C 65.406253 110.32707 64.906252 107.88957 64.906252 105.20207 C 64.906252 101.70207 65.625004 98.514567 67.062502 95.639569 C 68.562501 92.764572 70.625005 90.327067 73.250002 88.327069 C 75.9375 86.264572 79.156256 84.670818 82.906252 83.545819 C 86.718749 82.420821 90.937507 81.858319 95.562502 81.858319 C 99.874998 81.858319 103.81251 82.389571 107.375 83.452069 C 111 84.452068 114.15626 85.952071 116.84375 87.952069 C 119.59375 89.889568 121.8125 92.264572 123.5 95.077069 C 125.25 97.827067 126.40625 100.98332 126.96875 104.54582 L 144.40625 104.54582 C 144.03125 98.920823 142.5625 93.764565 140 89.077069 C 137.4375 84.389574 134.03125 80.358316 129.78125 76.983319 C 125.53126 73.608323 120.53125 70.983318 114.78125 69.108319 C 109.03126 67.170821 102.8125 66.202069 96.125002 66.202069 z M 127.125 138.55949 L 95.390627 146.35832 L 100.8125 147.76457 C 110.43749 150.13957 117.46876 153.26457 121.90625 157.13957 C 126.40625 161.01457 128.65625 165.92083 128.65625 171.85832 C 128.65625 175.29582 127.84375 178.48332 126.21875 181.42082 C 124.59375 184.35832 122.3125 186.88957 119.375 189.01457 C 116.50001 191.13957 113.09375 192.79582 109.15625 193.98332 C 105.21876 195.17082 100.90625 195.76457 96.218752 195.76457 C 91.281257 195.76457 86.749998 195.20207 82.625002 194.07707 C 78.500006 192.95207 74.874999 191.35832 71.750002 189.29582 C 68.687505 187.23332 66.1875 184.73332 64.250002 181.79582 C 62.312504 178.85832 61.093752 175.57707 60.593752 171.95207 L 43.062502 171.95207 C 43.500002 177.95206 45.031255 183.38957 47.656252 188.26457 C 50.34375 193.13956 53.937507 197.29582 58.437502 200.73332 C 62.937498 204.17082 68.250008 206.82707 74.375002 208.70207 C 80.499996 210.57707 87.25001 211.51457 94.625002 211.51457 C 102.56249 211.51457 109.71876 210.51457 116.09375 208.51457 C 122.46875 206.57707 127.90626 203.82707 132.40625 200.26457 C 136.90625 196.63957 140.34375 192.26456 142.71875 187.13957 C 145.15625 181.95207 146.375 176.17081 146.375 169.79582 C 146.375 164.67082 145.625 160.10832 144.125 156.10832 C 142.625 152.10832 140.25 148.54582 137 145.42082 C 134.33106 142.85453 131.01627 140.57784 127.125 138.55949 z "
       transform="matrix(0.26458333,0,0,0.26458333,7.6563795,-2.6992975)" />
    <path
       style="fill:#5b8c5a;fill-opacity:1;stroke:#5b8c5a;stroke-width:1.58749998;stroke-linecap:round;stroke-linejoin:round;stroke-miterlimit:0;stroke-dasharray:none"
       d="M 16.933333,40.216664 50.799997,27.516666"
       id="path2" />
  </g>
</svg>
