<?xml version="1.0" encoding="UTF-8" standalone="no"?>
<!-- Created with Inkscape (http://www.inkscape.org/) -->

<svg
   width="256"
   height="512"
   viewBox="0 0 67.733332 135.46667"
   version="1.1"
   id="svg1"
   inkscape:version="1.3.2 (091e20e, 2023-11-25)"
   sodipodi:docname="icon_boot_splash.svg"
   inkscape:export-filename="icon_boot_splash.png"
   inkscape:export-xdpi="192"
   inkscape:export-ydpi="192"
   xmlns:inkscape="http://www.inkscape.org/namespaces/inkscape"
   xmlns:sodipodi="http://sodipodi.sourceforge.net/DTD/sodipodi-0.dtd"
   xmlns="http://www.w3.org/2000/svg"
   xmlns:svg="http://www.w3.org/2000/svg">
  <sodipodi:namedview
     id="namedview1"
     pagecolor="#ffffff"
     bordercolor="#111111"
     borderopacity="1"
     inkscape:showpageshadow="0"
     inkscape:pageopacity="0"
     inkscape:pagecheckerboard="1"
     inkscape:deskcolor="#d1d1d1"
     inkscape:document-units="px"
     showgrid="true"
     inkscape:zoom="1.2363281"
     inkscape:cx="119.70932"
     inkscape:cy="246.29384"
     inkscape:window-width="1392"
     inkscape:window-height="916"
     inkscape:window-x="3241"
     inkscape:window-y="260"
     inkscape:window-maximized="0"
     inkscape:current-layer="layer1">
    <inkscape:grid
       id="grid1"
       units="px"
       originx="0"
       originy="0"
       spacingx="2.1166666"
       spacingy="2.1166666"
       empcolor="#0099e5"
       empopacity="0.30196078"
       color="#0099e5"
       opacity="0.14901961"
       empspacing="4"
       dotted="false"
       gridanglex="30"
       gridanglez="30"
       visible="true" />
  </sodipodi:namedview>
  <defs
     id="defs1">
    <rect
       x="31.999998"
       y="31.999998"
       width="223.99998"
       height="223.99998"
       id="rect1" />
  </defs>
  <g
     inkscape:label="Layer 1"
     inkscape:groupmode="layer"
     id="layer1">
    <rect
       style="fill:#fdfff7;fill-opacity:1;stroke:none;stroke-width:2.24506;stroke-linecap:round;stroke-linejoin:round;stroke-miterlimit:0;stroke-dasharray:none"
       id="rect2"
       width="67.73333"
       height="135.46666"
       x="0"
       y="0"
       ry="8.0871629e-09" />
    <path
       id="text1"
       style="font-weight:100;font-size:192px;font-family:'.Keyboard';-inkscape-font-specification:'.Keyboard, Thin';white-space:pre;fill:#5b8c5a;fill-opacity:1;stroke:#5b8c5a;stroke-width:0.264583;stroke-linecap:round;stroke-linejoin:round;stroke-miterlimit:0;stroke-dasharray:none"
       d="m 34.238737,48.5097 c -1.934763,0 -3.704168,0.256316 -5.308203,0.768946 -1.587498,0.496093 -2.951759,1.207162 -4.092773,2.133203 -1.141014,0.909504 -2.025717,2.009181 -2.654102,3.299023 -0.611848,1.289843 -0.917773,2.71198 -0.917773,4.266407 0,1.306377 0.181901,2.480468 0.545703,3.522265 0.380338,1.025261 0.950847,1.943034 1.711523,2.75332 0.736453,0.76779 1.664803,1.435958 2.772441,2.010731 l 8.655286,-2.12752 -1.902727,-0.503328 c -1.273306,-0.314192 -2.356446,-0.661458 -3.249414,-1.041797 -0.892967,-0.380338 -1.620573,-0.802018 -2.182812,-1.265039 -0.562239,-0.479557 -0.975651,-1.000455 -1.240235,-1.562695 -0.264583,-0.578776 -0.396875,-1.223698 -0.396875,-1.934765 0,-0.926042 0.19017,-1.769402 0.570508,-2.530079 0.396875,-0.760676 0.942579,-1.405599 1.63711,-1.934765 0.711067,-0.545703 1.562696,-0.967384 2.554882,-1.26504 1.008724,-0.297655 2.124937,-0.446484 3.348633,-0.446484 1.141015,0 2.182815,0.140561 3.12539,0.42168 0.959115,0.264583 1.794209,0.661459 2.505274,1.190625 0.727604,0.51263 1.314648,1.141016 1.761132,1.885156 0.463021,0.727604 0.768946,1.562696 0.917774,2.505274 h 4.613672 C 46.913931,57.166537 46.525325,55.802277 45.84733,54.562044 45.169336,53.321811 44.268099,52.255207 43.143619,51.362239 42.019143,50.469272 40.696224,49.774739 39.17487,49.278646 37.653518,48.766016 36.008138,48.5097 34.238737,48.5097 Z m 8.202083,19.144568 -8.396386,2.06344 1.434537,0.37207 c 2.546612,0.628386 4.406969,1.455209 5.581055,2.480469 1.190625,1.025261 1.785937,2.323375 1.785937,3.894336 0,0.909505 -0.214974,1.752865 -0.644922,2.530078 -0.429948,0.777214 -1.033528,1.44694 -1.810742,2.00918 -0.760674,0.562239 -1.661914,1.000456 -2.703711,1.314648 -1.041794,0.314193 -2.182812,0.471289 -3.423046,0.471289 -1.306379,0 -2.505274,-0.148828 -3.59668,-0.446484 -1.091405,-0.297656 -2.050521,-0.719336 -2.877343,-1.265039 -0.810286,-0.545703 -1.471746,-1.207162 -1.984375,-1.984375 -0.51263,-0.777214 -0.835091,-1.645378 -0.967383,-2.604492 h -4.638477 c 0.115756,1.587497 0.5209,3.026172 1.21543,4.316015 0.711067,1.289841 1.661915,2.389519 2.852539,3.299024 1.190624,0.909505 2.596226,1.612304 4.216797,2.108398 1.620571,0.496094 3.406512,0.744141 5.357812,0.744141 2.100127,0 3.993557,-0.264584 5.680273,-0.79375 1.686719,-0.51263 3.125393,-1.240235 4.316016,-2.182813 1.190625,-0.959114 2.10013,-2.116669 2.728515,-3.472656 0.644922,-1.372526 0.967383,-2.902151 0.967383,-4.588867 0,-1.35599 -0.198437,-2.563151 -0.595312,-3.621484 -0.396875,-1.058334 -1.025261,-2.000912 -1.885157,-2.827735 -0.706157,-0.678997 -1.583195,-1.281371 -2.61276,-1.815393 z" />
    <path
       style="fill:#5b8c5a;fill-opacity:1;stroke:#5b8c5a;stroke-width:1.5875;stroke-linecap:round;stroke-linejoin:round;stroke-miterlimit:0;stroke-dasharray:none"
       d="M 16.933335,74.083332 50.799999,61.383334"
       id="path2" />
  </g>
</svg>
